<svg viewBox="0 0 48 48" xml:space="preserve" xmlns="http://www.w3.org/2000/svg"><path d="M37 48H0V4h29a1 1 0 0 1 0 2H2v40h33V24a1 1 0 0 1 2 0v24z" fill="#587ef4" class="fill-000000"></path><path d="M21.637 27.363a1 1 0 0 1-.896-1.447l2.828-5.657a.98.98 0 0 1 .188-.26L42.85.907C43.443.313 44.166 0 44.939 0c1.213 0 2.354.784 2.837 1.95.461 1.114.206 2.31-.683 3.199L28.001 24.241a1.028 1.028 0 0 1-.26.188l-5.657 2.829a.997.997 0 0 1-.447.105zm3.65-6.065-1.414 2.829 2.829-1.415L45.679 3.735c.315-.315.399-.658.25-1.02-.17-.407-.595-.715-.99-.715-.235 0-.462.108-.675.321L25.287 21.298z" fill="#587ef4" class="fill-000000"></path><path d="M43.557 8.271c-.256 0-.512-.098-.708-.293l-2.828-2.829a1.002 1.002 0 0 1 0-1.415 1.002 1.002 0 0 1 1.415 0l2.828 2.829a1.002 1.002 0 0 1-.707 1.708z" fill="#587ef4" class="fill-000000"></path></svg>